<?xml version="1.0" encoding="UTF-8"?>
<svg id="Layer_1" xmlns="http://www.w3.org/2000/svg" version="1.1" viewBox="0 0 527.28 320.46">
  <!-- Generator: Adobe Illustrator 29.4.0, SVG Export Plug-In . SVG Version: 2.1.0 Build 152)  -->
  <defs>
    <style>
      .st0 {
        fill: none;
        stroke: #9d3ca2;
        stroke-linecap: round;
        stroke-miterlimit: 10;
        stroke-width: 27.78px;
      }

      .st1 {
        fill: #51ae52;
      }
    </style>
  </defs>
  <path class="st1" d="M122.03,135.1h98.21c4.37,0,7.82-1.23,10.37-3.68,2.55-2.46,3.82-5.86,3.82-10.23v-27.83h26.73v33.56c0,12.37-3.5,22.06-10.5,29.05-7,7-16.69,10.5-29.05,10.5h-99.58v-31.37Z"/>
  <path class="st1" d="M25.49,135.1h69.21c4.37,0,7.82-1.23,10.37-3.68,2.55-2.46,3.82-5.86,3.82-10.23v-27.83h26.73v33.56c0,12.37-3.5,22.06-10.5,29.05-7,7-16.69,10.5-29.05,10.5H25.49v-31.37Z"/>
  <path class="st1" d="M391.65,135.1h69.21c4.37,0,7.82-1.23,10.37-3.68,2.55-2.46,3.82-5.86,3.82-10.23v-27.83h26.73v33.56c0,12.37-3.5,22.06-10.5,29.05-7,7-16.69,10.5-29.05,10.5h-70.58v-31.37Z"/>
  <circle class="st1" cx="483.68" cy="198.94" r="18.11"/>
  <circle class="st1" cx="248.09" cy="52.34" r="18.11"/>
  <path class="st0" d="M293.5,286.22c26.63-39.09,63.02-94.79,83.17-137.95,14.27-30.07,39.15-96.97,1.86-100.82-14.84.72-27.01,10.33-39.06,22-22.41,22.19-39.43,58.21-38.61,90.57,0,30.3,14.86,59.1,40.31,72.26,14.47,7.63,34.3,10.64,46.64-1.14,13.88-13.81,10.84-36.48,3.66-53.31-18.26-43.6-54.17-71.37-92.04-101.92"/>
</svg>